<svg xmlns="http://www.w3.org/2000/svg" viewBox="0 0 3827.39 3771.3">
  <g id="Layer_2" data-name="Layer 2">
    <g id="Layer_1-2" data-name="Layer 1">
      <path d="M3827.39,2180c0-223.48-46.48-436.11-130.29-628.75-102.38-236.59-264.31-451.37-482.7-620.18a1590.34,1590.34,0,0,0-190.84-126.75c-3.57-2-7.15-3.79-10.75-5.37-226.09-125.16-486.17-196.42-762.89-196.42C1378.7,602.54,672.44,1308.8,672.44,2180c0,612.17,348.7,1142.89,858.31,1404.38A1779.82,1779.82,0,0,0,1792,3695a1490.24,1490.24,0,0,0,1288.5-168.06,1771.59,1771.59,0,0,0,236.06-184.71C3630.57,3053.87,3827.39,2639.93,3827.39,2180ZM3005.94,3301.64a1353.33,1353.33,0,0,1-1282.4,124.66q-44.88-19-88.45-41.28-51.27-26.76-99.6-57.05-6-3.78-12-7.62a1808.58,1808.58,0,0,0,657.41-173.45,1795.85,1795.85,0,0,0,644.91-522.41c194.62-251.77,319.41-550.76,360.9-864.65a1811.26,1811.26,0,0,0-15.49-570q17.85,16.61,35.07,33.83a1355.32,1355.32,0,0,1,283.3,414.55c.24.56.49,1.13.73,1.7,1,2.27,2,4.56,2.95,6.84a1357.41,1357.41,0,0,1,59.82,895,1343.48,1343.48,0,0,1-121.34,295.07,1383.41,1383.41,0,0,1-197.09,269.5q-33.43,35.79-69.72,69.66A1363.4,1363.4,0,0,1,3005.94,3301.64Zm-2081-848.82a1367.86,1367.86,0,0,1,0-545.61A1343.72,1343.72,0,0,1,1128.29,1424a1357.13,1357.13,0,0,1,595.25-490.26A1344.06,1344.06,0,0,1,1977.11,855a1367.86,1367.86,0,0,1,545.61,0,1344.06,1344.06,0,0,1,253.57,78.71q54.27,22.95,106.6,50.75c177.38,490.77,107.65,1059-235.12,1502.4C2337,2889,1870.29,3099.67,1398.6,3099.67q-73.35,0-146.61-6.81a1353.29,1353.29,0,0,1-248.36-386.47A1344.06,1344.06,0,0,1,924.92,2452.82Z"></path>
      <rect x="2276.75" y="119.21" width="439.29" height="225" transform="translate(1962.52 2681.32) rotate(-83.01)"></rect>
      <rect x="1260.39" y="149.06" width="225" height="439.29" transform="translate(-23.1 636.98) rotate(-25.91)"></rect>
      <rect x="428.39" y="831.06" width="225" height="439.29" transform="translate(-638.8 980.9) rotate(-59.37)"></rect>
      <rect x="0.03" y="2024.52" width="439.29" height="225"></rect>
      <rect x="303.98" y="3127.57" width="439.29" height="225" transform="translate(-1684.56 811.87) rotate(-33.1)"></rect>
    </g>
  </g>
</svg>
